# xmcd
#
# Track frame offsets:
#	150
#	11824
#	26449
#	37746
#	62833
#	76879
#	100339
#	115597
#	134312
#	155888
#	169859
#	188519
#	206318
#	226096
#	247109
#
# Disc length: 3737 seconds
#
# Revision: 0
# Processed by: cddbd v1.5.2PL0 Copyright (c) Steve Scherf et al.
# Submitted via: dBpowerAMP V4.0
#
DISCID=b70e970f
DTITLE=Elliott Randall - ELLIOTT RANDALL GUITAR ARCHIVES VOLUME ONE
DYEAR=1900
DGENRE=Blues
TTITLE0=Easy Ridin' Buggy
TTITLE1=Spoonful
TTITLE2=My Baby Caught The Train
TTITLE3=Have You Ever Been Mistreated
TTITLE4=Further On Up The Road
TTITLE5=Sour Flower Beta
TTITLE6=Mumblin' To Myself
TTITLE7=On My Way
TTITLE8=Take Tomorrow
TTITLE9=Pistol Candy Ladd
TTITLE10=After The Affair
TTITLE11=Searchin'
TTITLE12=Work Song
TTITLE13=Bodhisattva
TTITLE14=Mushroom Jam
EXTD=
EXTT0=
EXTT1=
EXTT2=
EXTT3=
EXTT4=
EXTT5=
EXTT6=
EXTT7=
EXTT8=
EXTT9=
EXTT10=
EXTT11=
EXTT12=
EXTT13=
EXTT14=
PLAYORDER=
